<?xml version="1.0" encoding="utf-8"?>
<!-- Generator: Adobe Illustrator 24.1.3, SVG Export Plug-In . SVG Version: 6.00 Build 0)  -->
<svg version="1.1" id="Layer_1" xmlns="http://www.w3.org/2000/svg" xmlns:xlink="http://www.w3.org/1999/xlink" x="0px" y="0px"
	 viewBox="0 0 800 800" style="enable-background:new 0 0 800 800;" xml:space="preserve">
<style type="text/css">
	.st0{fill:#FFFFFF;}
</style>
<g>
	<path class="st0" d="M292.2,597.3c33.9-4.2,59.4-35.1,56.8-69c0-0.6-0.2-1.1-0.2-1.7h0.3V318.7L508.5,289v166.5
		c-9.2-3.8-19.5-5.2-30.2-3.9c-33.9,4.2-59.5,35.1-56.9,69c2.6,33.9,32.2,57.9,66.2,53.7c34-4.2,59.4-35.1,56.9-69
		c0-0.6-0.1-1.1-0.3-1.7h0.3V200.3c0,0,0.1-1,0-1l-0.2,0.1L313,238.8v239.7c-9.2-3.8-19.4-5.3-30.2-3.9c-34,4.2-59.5,35.1-56.8,69
		C228.6,577.4,258.2,601.5,292.2,597.3z"/>
	<path class="st0" d="M398.5,797C618.6,797,797,618.6,797,398.5S618.6,0,398.5,0S0,178.4,0,398.5S178.4,797,398.5,797z M398.5,79.7
		c176.1,0,318.8,142.7,318.8,318.8S574.6,717.3,398.5,717.3S79.7,574.6,79.7,398.5S222.4,79.7,398.5,79.7z"/>
</g>
</svg>
