<?xml version="1.0" encoding="utf-8"?>
<!-- Generator: Adobe Illustrator 24.1.3, SVG Export Plug-In . SVG Version: 6.00 Build 0)  -->
<svg version="1.1" id="Layer_1" xmlns="http://www.w3.org/2000/svg" xmlns:xlink="http://www.w3.org/1999/xlink" x="0px" y="0px"
	 viewBox="0 0 800 800" style="enable-background:new 0 0 800 800;" xml:space="preserve">
<g>
	<path d="M400,0C180,0,0,180,0,400s180,400,400,400s400-180,400-400S620,0,400,0z M585,575c-5,10-25,15-35,10c-105-60-235-75-350-40
		c-15,0-25-5-30-20c0-10,5-25,20-30c130-40,270-20,390,45C585,550,590,565,585,575L585,575z M635,470C630,470,630,470,635,470
		c-10,15-30,20-45,10c-120-70-265-85-400-45c-15,5-35-5-40-20c-5-20,5-35,20-45c150-45,315-25,450,55C635,435,640,455,635,470
		L635,470z M635,355c-130-75-340-85-465-45c-20,5-40-5-45-25c-5-20,5-40,25-50c140-40,375-35,525,55c20,10,25,35,15,50
		C675,360,655,365,635,355z"/>
</g>
</svg>
