<?xml version="1.0" encoding="utf-8"?>
<!-- Generator: Adobe Illustrator 24.1.3, SVG Export Plug-In . SVG Version: 6.00 Build 0)  -->
<svg version="1.1" id="Layer_1" xmlns="http://www.w3.org/2000/svg" xmlns:xlink="http://www.w3.org/1999/xlink" x="0px" y="0px"
	 viewBox="0 0 800 800" style="enable-background:new 0 0 800 800;" xml:space="preserve">
<style type="text/css">
	.st0{fill:#FFFFFF;}
</style>
<g>
	<path class="st0" d="M400,0C179.1,0,0,179.1,0,400s179.1,400,400,400s400-179.1,400-400S620.9,0,400,0z M649.7,649.5
		c-32.5,32.5-70.2,58-112.2,75.6c-43.4,18.4-89.7,27.7-137.5,27.7c-47.7,0-93.9-9.4-137.5-27.7c-42-17.8-79.8-43.3-112.2-75.6
		c-32.5-32.5-58-70.2-75.6-112.2C56.3,493.9,46.9,447.7,46.9,400s9.4-93.9,27.7-137.5c17.8-42,43.3-79.8,75.6-112.2
		c32.7-32.5,70.3-58,112.3-75.8c43.6-18.3,89.8-27.7,137.5-27.7s93.9,9.4,137.5,27.7c42,17.8,79.8,43.3,112.2,75.6
		c32.5,32.5,58,70.2,75.6,112.2C743.7,305.8,753,352,753,399.8c0,47.7-9.4,93.9-27.7,137.5C707.5,579.4,682,617.2,649.7,649.5z"/>
	<path class="st0" d="M589.5,262.7c-15.9,9.4-33.4,16.3-52.2,20c-15-15.9-36.4-25.9-60-25.9c-45.3,0-82.2,36.9-82.2,82.2
		c0,6.4,0.6,12.7,2.2,18.8c-68.3-3.4-128.9-36.1-169.4-85.9c-7,12.2-11.1,26.2-11.1,41.4c0,28.4,14.5,53.6,36.6,68.4
		c-13.4-0.5-26.1-4.2-37.2-10.3v0.9c0,39.8,28.3,73.1,65.9,80.6c-6.9,1.9-14.2,3-21.7,3c-5.3,0-10.5-0.5-15.5-1.4
		c10.5,32.7,40.8,56.4,76.7,57c-28.1,22-63.6,35.2-102,35.2c-6.6,0-13.1-0.3-19.7-1.1c36.4,23.3,79.5,36.9,125.9,36.9
		c151.3,0,233.9-125.3,233.9-233.9c0-3.6,0-7.2-0.2-10.6c16.1-11.7,30-26.1,40.9-42.7c-14.7,6.6-30.6,10.9-47.2,13
		C570.5,298,583.4,281.9,589.5,262.7z"/>
</g>
</svg>
