<?xml version="1.0" encoding="utf-8"?>
<!-- Generator: Adobe Illustrator 24.1.3, SVG Export Plug-In . SVG Version: 6.00 Build 0)  -->
<svg version="1.1" id="Layer_1" xmlns="http://www.w3.org/2000/svg" xmlns:xlink="http://www.w3.org/1999/xlink" x="0px" y="0px"
	 viewBox="0 0 800 800" style="enable-background:new 0 0 800 800;" xml:space="preserve">
<style type="text/css">
	.st0{fill:#FFFFFF;}
</style>
<g>
	<circle class="st0" cx="400" cy="400" r="400"/>
	<path d="M540,177.8c11.6-0.8,18.4,6.2,18.4,17.8c-0.2,348.3,0.8,316.5-2.1,329.2c-6.5,27.8-27.6,43.3-55.7,48.6
		c-24.7,4.5-45.3,5.7-65.1-10.2c-24.1-20.4-24.5-53.9-2.9-75.1c17.2-16.3,41.5-19.6,77.6-26.1c6.1-1,11.4-2.4,15.7-7.6
		c6.5-7.3,4.5,8.8,4.5-152c0-11.4-5.5-14.5-17.2-12.5c-8.2,1.4-187.6,34.9-187.6,34.9c-10.2,2.3-13.7,5.3-13.7,16.9
		c0,237,1,213.3-2.4,229c-4.3,18.4-15.5,32.2-30.4,39.9c-16.9,9.4-47.8,13.5-64.1,10.7c-43.7-8.2-59-58.6-29.4-87.6
		c17.2-16.3,41.5-19.6,77.6-26.1c6.1-1,11.4-2.4,15.7-7.6c10.2-11.6,1.8-246.3,5.3-260c0.8-5.3,3-9.7,7.1-13
		c4.3-3.5,11.8-5.6,13.7-5.6C511.3,182.7,536.4,177.8,540,177.8z"/>
</g>
</svg>
